<?xml version="1.0" standalone="no"?>
<!DOCTYPE svg PUBLIC "-//W3C//DTD SVG 20010904//EN"
 "http://www.w3.org/TR/2001/REC-SVG-20010904/DTD/svg10.dtd">
<svg version="1.0" xmlns="http://www.w3.org/2000/svg"
 width="512.000000pt" height="512.000000pt" viewBox="0 0 512.000000 512.000000"
 preserveAspectRatio="xMidYMid meet">
<metadata>
Created by potrace 1.11, written by Peter Selinger 2001-2013
</metadata>
<g transform="translate(0.000000,512.000000) scale(0.100000,-0.100000)"
fill="#000000" stroke="none">
<path d="M4880 5000 c0 -7 -80 -40 -110 -46 -24 -5 -68 -66 -86 -119 -9 -27
-22 -57 -29 -65 -7 -8 -14 -20 -16 -26 -4 -12 -57 -77 -104 -128 -16 -19 -50
-57 -75 -86 -25 -29 -64 -73 -87 -98 -24 -25 -43 -48 -43 -51 0 -4 -16 -21
-35 -40 -19 -18 -35 -37 -35 -42 0 -6 -4 -7 -10 -4 -5 3 -10 0 -10 -7 0 -7
-17 -31 -38 -54 -70 -77 -98 -109 -127 -149 -17 -22 -33 -41 -37 -43 -5 -2 -8
-7 -8 -11 0 -5 -21 -30 -46 -57 -25 -27 -57 -68 -71 -91 -14 -24 -29 -43 -35
-43 -5 0 -6 -5 -3 -10 3 -6 -4 -14 -17 -19 -27 -11 -116 -100 -229 -231 -46
-52 -87 -98 -93 -102 -6 -4 -8 -8 -4 -8 3 0 -16 -22 -43 -50 -27 -27 -46 -50
-42 -50 3 0 -5 -10 -18 -23 -13 -12 -46 -49 -74 -81 -27 -32 -61 -70 -75 -86
-14 -15 -47 -54 -75 -86 -65 -76 -284 -294 -296 -294 -5 0 -9 -6 -10 -12 0 -7
-30 -35 -66 -63 -36 -27 -74 -58 -85 -67 -10 -10 -23 -18 -28 -18 -5 0 -10 -4
-10 -8 0 -4 -8 -8 -18 -9 -29 -2 -56 84 -46 145 4 26 9 52 10 57 10 29 26 109
38 181 7 44 18 89 24 100 5 10 13 35 16 54 8 52 14 79 22 103 4 12 8 31 10 42
2 22 4 28 24 95 8 25 14 48 16 53 1 4 2 8 3 10 2 1 5 13 7 27 2 14 11 43 19
65 7 22 17 54 21 70 9 37 13 47 41 115 3 8 7 22 9 30 7 37 28 96 38 105 6 6
11 15 11 20 1 23 30 101 42 113 7 8 11 18 8 23 -4 5 -1 9 4 9 6 0 11 7 11 15
0 13 47 123 71 165 5 8 18 33 29 55 11 22 32 58 45 80 90 144 106 212 60 255
-15 14 -38 23 -59 24 -20 0 -36 3 -36 6 0 3 -30 4 -67 3 -38 0 -68 -2 -68 -3
0 -1 -16 -4 -35 -7 -39 -5 -98 -30 -118 -50 -7 -7 -22 -13 -33 -13 -10 0 -19
-4 -19 -8 0 -4 -12 -15 -27 -24 -16 -9 -43 -29 -62 -45 -45 -37 -223 -216
-258 -259 -14 -19 -33 -36 -42 -39 -9 -3 -31 -26 -50 -50 -18 -25 -47 -53 -62
-62 -16 -10 -29 -21 -29 -25 0 -4 -12 -20 -26 -35 -31 -33 -192 -218 -220
-252 -10 -13 -34 -39 -51 -57 -18 -18 -33 -37 -33 -42 0 -5 -18 -28 -40 -52
-22 -24 -40 -46 -40 -49 0 -4 -8 -14 -17 -22 -27 -24 -116 -129 -128 -150 -5
-10 -43 -56 -82 -102 -40 -47 -73 -87 -73 -91 0 -6 -23 -35 -46 -60 -6 -7 -18
-25 -27 -41 -8 -17 -25 -37 -36 -45 -12 -8 -21 -18 -21 -23 0 -9 -10 -22 -52
-69 -16 -17 -28 -34 -28 -38 0 -4 -16 -27 -34 -51 -19 -24 -33 -45 -32 -47 2
-2 -7 -15 -20 -29 -13 -14 -21 -29 -18 -34 3 -5 1 -9 -4 -9 -5 0 -26 -26 -48
-57 -21 -32 -41 -60 -44 -63 -5 -5 -12 -16 -56 -90 -15 -25 -46 -74 -69 -110
-23 -36 -57 -89 -75 -117 -18 -29 -36 -53 -41 -53 -4 0 -5 -7 -2 -17 4 -11 3
-14 -5 -9 -8 5 -12 -2 -12 -19 0 -14 -4 -24 -9 -21 -5 3 -16 -12 -25 -34 -9
-22 -21 -40 -27 -40 -5 0 -7 -4 -4 -10 3 -5 2 -10 -4 -10 -5 0 -13 -10 -17
-22 -3 -13 -15 -35 -25 -49 -10 -14 -16 -29 -12 -33 3 -3 1 -6 -5 -6 -6 0 -19
-17 -28 -37 -10 -21 -22 -44 -28 -52 -13 -16 -86 -146 -122 -216 -14 -27 -36
-70 -49 -95 -14 -25 -25 -51 -25 -57 0 -7 -4 -13 -9 -13 -5 0 -15 -16 -21 -35
-6 -19 -16 -35 -21 -35 -5 0 -9 -5 -9 -10 0 -6 -31 -74 -69 -153 -37 -78 -74
-157 -82 -175 -8 -17 -17 -32 -21 -32 -3 0 -10 -15 -13 -33 -8 -35 -34 -88
-50 -99 -5 -4 -7 -8 -3 -8 4 0 -1 -22 -12 -50 -11 -27 -16 -50 -12 -50 4 0 1
-4 -7 -9 -8 -5 -16 -17 -17 -26 -1 -9 -6 -24 -10 -33 -4 -9 -8 -20 -9 -24 -2
-5 -4 -10 -5 -13 -1 -3 -3 -8 -5 -12 -1 -5 -8 -21 -15 -38 -15 -34 -16 -37
-25 -84 -3 -19 -8 -38 -11 -43 -5 -8 -9 -22 -20 -77 -3 -14 -8 -29 -12 -35
-14 -23 -10 -220 4 -248 8 -16 11 -28 8 -28 -4 0 1 -9 11 -20 10 -11 14 -20
10 -20 -5 0 6 -16 25 -35 29 -30 41 -35 80 -35 46 0 80 23 87 60 5 28 13 84
18 140 3 30 8 69 11 85 5 30 14 161 15 200 0 11 5 38 10 60 6 22 13 47 14 55
2 8 11 32 19 53 9 20 14 37 11 37 -3 0 2 14 10 30 9 17 13 35 10 40 -3 5 -1
11 5 15 5 3 21 44 35 90 14 47 30 87 34 90 5 2 12 17 15 32 7 27 45 118 91
218 50 109 82 180 82 189 1 5 5 12 10 15 12 8 103 193 103 209 0 7 7 12 16 12
8 0 12 4 9 10 -3 5 -2 10 3 10 6 0 13 12 16 26 4 14 16 35 26 47 11 11 20 27
20 34 0 7 5 13 11 13 5 0 8 3 6 8 -2 4 12 33 32 64 20 32 60 97 90 145 78 126
157 244 183 274 13 15 24 32 26 39 2 8 12 21 23 31 10 9 19 21 19 27 0 6 13
25 29 41 16 17 32 38 35 48 3 10 22 35 41 55 19 20 35 40 35 44 0 4 22 33 48
63 26 31 55 67 64 81 8 14 28 39 43 55 15 17 37 41 49 55 13 14 29 36 36 50
14 25 33 48 111 130 26 27 45 51 43 53 -2 2 18 22 45 45 27 23 73 68 102 99
30 32 86 91 126 133 39 41 84 91 100 110 15 19 45 51 66 71 20 20 37 40 37 44
0 4 15 22 33 40 17 18 48 52 67 76 19 23 76 85 125 137 50 53 102 108 118 124
15 16 27 34 27 39 0 5 4 9 10 9 5 0 25 17 45 37 l37 38 -7 -45 c-4 -25 -10
-49 -14 -55 -5 -5 -8 -17 -9 -25 0 -8 -6 -31 -13 -50 -15 -43 -21 -62 -25 -75
-5 -22 -34 -93 -58 -147 -14 -32 -23 -58 -21 -58 3 0 -5 -21 -18 -47 -13 -27
-32 -75 -42 -108 -10 -33 -21 -64 -25 -70 -10 -13 -40 -136 -40 -161 0 -11 -4
-24 -10 -30 -5 -5 -11 -51 -14 -102 -3 -52 -10 -100 -17 -108 -6 -8 -7 -14 -2
-14 6 0 4 -21 -4 -52 -8 -29 -16 -64 -19 -77 -3 -14 -8 -29 -11 -35 -7 -10 -8
-19 -18 -101 -3 -22 -7 -56 -10 -75 -8 -52 -8 -158 0 -215 4 -27 8 -59 9 -70
1 -11 8 -30 14 -42 7 -12 12 -29 12 -38 0 -9 4 -14 9 -10 6 3 14 -3 20 -12 6
-10 11 -14 11 -9 0 5 7 3 15 -4 39 -32 202 9 263 67 7 7 20 13 28 13 8 0 14 5
14 10 0 6 7 10 15 10 8 0 15 4 15 8 0 5 12 15 27 23 28 14 63 45 63 54 0 10
65 79 452 477 171 176 286 300 385 413 43 50 104 115 135 146 32 30 58 61 58
68 0 7 5 9 10 6 6 -3 10 -2 10 4 0 6 10 20 23 33 12 13 32 37 44 53 l22 30 -5
-30 c-3 -16 -10 -32 -15 -36 -6 -3 -10 -9 -10 -13 2 -11 -29 -66 -38 -66 -4 0
-7 -11 -6 -25 2 -14 -1 -25 -5 -25 -5 0 -16 -18 -26 -40 -10 -22 -21 -40 -26
-40 -4 0 -6 -10 -4 -22 1 -13 -5 -37 -15 -55 -10 -18 -17 -33 -15 -33 2 0 -5
-24 -16 -52 -11 -29 -22 -61 -25 -70 -3 -10 -9 -18 -14 -18 -5 0 -9 -8 -9 -17
0 -10 -9 -33 -20 -50 -11 -18 -17 -33 -14 -33 4 0 2 -6 -4 -13 -6 -7 -41 -103
-77 -213 -36 -109 -70 -208 -76 -219 -6 -12 -11 -27 -12 -35 -2 -8 -6 -21 -10
-27 -5 -7 -5 -17 -2 -23 3 -5 1 -10 -5 -10 -6 0 -9 -4 -5 -9 3 -5 1 -12 -4
-15 -5 -3 -12 -22 -15 -41 -4 -19 -11 -35 -17 -35 -6 0 -8 -4 -4 -9 3 -5 -7
-45 -21 -88 -14 -43 -28 -85 -29 -93 -2 -8 -4 -15 -5 -15 -1 0 -3 -13 -5 -30
-7 -46 -13 -87 -20 -123 -4 -18 -7 -61 -8 -95 -1 -34 -5 -66 -8 -72 -5 -9 -5
-32 1 -37 1 -2 4 -53 5 -115 2 -62 8 -128 14 -147 5 -20 8 -47 7 -61 -2 -14 0
-25 3 -25 4 0 7 -23 6 -50 0 -28 4 -50 8 -50 5 0 5 -4 2 -10 -3 -5 -1 -10 5
-10 6 0 8 -4 5 -10 -3 -5 -2 -10 3 -10 6 0 13 -12 17 -27 10 -41 88 -108 143
-124 99 -28 181 -2 264 84 51 53 65 87 63 155 -3 72 -44 87 -143 53 l-52 -18
-25 25 c-14 14 -25 31 -25 38 0 8 -4 14 -10 14 -16 0 -31 78 -30 158 1 187 12
294 35 348 8 20 15 47 15 59 0 27 30 125 43 143 6 7 12 27 14 45 2 17 8 36 13
41 6 6 10 15 10 22 0 6 8 29 17 50 9 22 18 46 19 54 6 33 36 100 45 100 6 0 8
4 5 9 -7 11 14 74 28 83 6 4 8 8 4 8 -4 0 3 21 17 47 13 26 21 51 19 55 -3 4
0 8 5 8 6 0 10 3 9 8 -1 4 6 21 15 39 9 18 18 41 20 51 2 11 8 26 14 34 6 7
12 16 13 20 2 12 50 121 71 161 11 20 17 37 13 37 -3 0 -2 6 4 13 9 10 94 172
98 187 12 37 18 50 24 50 4 0 14 15 21 33 7 17 19 38 26 45 7 8 11 17 8 22 -3
4 2 13 10 20 8 7 13 16 10 20 -3 4 2 10 10 14 8 3 12 12 9 21 -3 8 -2 15 2 15
5 0 20 21 34 48 13 26 27 49 30 52 3 3 14 21 23 40 10 19 27 49 38 65 10 17
25 42 31 58 7 15 16 27 20 27 4 0 8 6 8 13 0 8 9 24 20 37 11 12 17 27 14 31
-3 5 0 9 6 9 6 0 16 12 22 28 7 15 19 34 28 42 8 8 16 21 18 29 1 7 9 20 17
28 8 8 15 18 15 23 0 5 6 15 13 22 11 12 34 45 62 89 27 44 53 78 92 125 23
28 40 54 37 56 -4 5 47 53 117 108 17 14 54 46 82 73 28 26 54 47 59 47 4 0 8
69 8 153 0 172 8 154 -85 193 -36 15 -155 26 -155 14z"/>
<path d="M3094 4920 c-5 -5 -89 -12 -185 -14 -96 -3 -186 -7 -199 -11 -14 -3
-61 -7 -105 -10 -44 -2 -80 -4 -80 -5 0 -1 -20 -3 -45 -5 -80 -4 -115 -9 -122
-19 -4 -6 -14 -4 -24 5 -11 9 -15 9 -10 2 5 -10 -3 -13 -31 -14 -21 -1 -41 -1
-45 0 -5 0 -8 -2 -8 -7 0 -6 -17 -9 -105 -15 -16 -1 -32 -5 -35 -8 -3 -4 -23
-9 -45 -12 -46 -7 -63 -11 -87 -21 -9 -4 -22 -5 -28 -1 -5 3 -10 1 -10 -4 0
-6 -11 -11 -24 -11 -14 0 -27 -4 -31 -9 -3 -6 -13 -10 -23 -9 -26 0 -57 -9
-90 -26 -16 -8 -32 -12 -36 -9 -3 4 -6 1 -6 -6 0 -7 -4 -10 -9 -6 -5 3 -12 1
-16 -5 -4 -6 -10 -8 -15 -5 -5 3 -11 1 -15 -4 -3 -6 -12 -8 -20 -4 -8 3 -15 0
-15 -7 0 -7 -8 -10 -20 -7 -11 3 -18 1 -15 -4 3 -4 -6 -11 -20 -15 -14 -3 -25
-10 -25 -16 0 -5 -6 -8 -12 -7 -20 2 -58 -12 -58 -23 0 -5 -6 -8 -12 -7 -17 3
-68 -22 -68 -32 0 -5 -7 -6 -15 -3 -8 4 -15 1 -15 -6 0 -6 -4 -8 -10 -5 -5 3
-10 1 -10 -4 0 -6 -3 -11 -7 -10 -16 2 -53 -14 -53 -22 0 -5 -7 -9 -15 -9 -8
0 -15 -5 -15 -11 0 -5 -4 -7 -10 -4 -5 3 -10 1 -10 -5 0 -6 -4 -9 -9 -6 -5 3
-20 -5 -35 -19 -14 -13 -26 -21 -26 -18 0 3 -7 0 -15 -7 -8 -6 -18 -9 -24 -6
-5 3 -12 -1 -15 -10 -3 -8 -10 -12 -16 -9 -5 3 -10 1 -10 -5 0 -8 -32 -26 -60
-33 -3 0 -16 -11 -29 -23 -14 -13 -28 -21 -33 -18 -4 3 -8 1 -8 -5 0 -9 -28
-28 -77 -50 -13 -6 -23 -15 -23 -20 0 -11 -39 -27 -55 -22 -5 1 -7 -1 -3 -5 9
-8 -32 -40 -45 -36 -5 1 -6 -2 -2 -8 3 -5 -2 -13 -12 -17 -26 -9 -63 -39 -57
-46 3 -2 -9 -10 -26 -16 -17 -6 -29 -14 -27 -18 6 -10 -19 -34 -27 -26 -3 3
-8 -2 -12 -11 -3 -9 -11 -16 -18 -16 -6 0 -22 -15 -36 -32 -14 -18 -44 -52
-67 -75 -23 -24 -39 -43 -35 -43 3 0 -8 -13 -26 -30 -18 -16 -31 -30 -27 -30
6 0 -6 -15 -38 -51 -9 -10 -14 -19 -10 -19 5 0 3 -4 -2 -8 -24 -17 -85 -173
-87 -222 0 -8 -4 -19 -7 -25 -4 -5 -6 -44 -4 -85 4 -97 6 -110 15 -110 4 0 5
-7 2 -15 -4 -8 -1 -15 5 -15 6 0 8 -7 5 -15 -4 -8 -1 -15 6 -15 6 0 9 -4 5 -9
-3 -5 1 -16 9 -23 7 -8 21 -29 30 -46 9 -18 21 -30 26 -27 6 4 10 -1 10 -10 0
-18 0 -17 77 -98 29 -30 50 -57 46 -61 -3 -3 2 -6 13 -6 11 0 25 -9 32 -20 7
-12 17 -18 22 -15 5 3 17 -6 26 -20 9 -14 23 -25 30 -25 8 0 14 -5 14 -11 0
-5 4 -8 9 -5 5 3 14 -1 21 -9 15 -18 34 -20 25 -2 -4 6 2 2 13 -10 11 -13 32
-23 46 -23 13 0 28 -5 31 -10 4 -7 13 -7 24 0 12 6 22 5 29 -2 9 -9 12 -9 12
-1 0 6 8 9 18 7 9 -2 23 0 31 5 16 10 25 71 10 71 -6 0 -8 4 -5 9 3 5 -1 12
-10 15 -9 4 -14 9 -11 13 7 7 -89 74 -101 71 -4 -1 -17 3 -30 10 -12 7 -22 9
-22 5 0 -4 -4 -3 -8 4 -4 6 -14 13 -22 15 -25 5 -41 36 -46 86 -7 71 -8 75
-26 102 -38 56 -60 133 -53 185 3 27 7 58 7 68 1 9 5 17 8 17 4 0 7 6 7 13 0
23 32 87 43 87 6 0 8 5 5 10 -6 10 31 72 47 78 4 2 8 9 8 15 0 7 13 28 30 47
16 19 28 36 26 38 -2 1 14 22 35 45 22 22 39 45 39 50 0 4 4 5 10 2 5 -3 10
-2 10 4 0 10 16 26 126 126 61 55 96 85 103 85 4 0 13 9 21 19 7 11 17 18 21
15 5 -2 13 5 19 17 7 11 14 18 17 16 2 -3 13 2 23 11 35 32 54 47 64 52 36 18
86 53 86 62 0 5 5 6 10 3 6 -3 10 -1 10 4 0 6 7 11 15 11 8 0 15 5 15 11 0 6
5 9 12 7 6 -2 20 3 29 11 39 35 50 42 59 36 6 -3 10 1 10 9 0 10 6 13 17 9 11
-4 14 -3 9 5 -5 8 -2 10 8 6 9 -3 16 -1 16 5 0 6 7 11 16 11 8 0 12 5 9 10 -4
6 -3 10 2 9 17 -3 73 14 73 22 0 5 9 9 19 9 11 0 23 5 26 10 4 6 11 8 16 5 5
-4 9 -2 9 4 0 5 9 8 20 6 11 -2 22 1 25 6 4 5 11 7 16 4 5 -4 9 -1 9 5 0 6 4
9 9 5 5 -3 12 -1 16 5 4 6 11 8 16 5 5 -4 9 -2 9 3 0 5 6 9 13 10 21 1 71 12
87 19 8 3 26 8 40 10 14 2 43 9 65 15 22 6 43 11 48 10 4 -1 7 2 7 7 0 6 9 8
20 6 11 -2 22 0 25 4 2 5 22 12 42 16 21 5 43 9 48 11 6 1 17 3 25 5 8 2 18 9
22 14 5 6 8 5 8 -4 0 -10 3 -11 13 -2 8 6 17 8 20 4 4 -3 9 1 13 10 3 9 12 13
20 10 8 -3 20 0 28 6 8 7 18 11 22 10 5 -1 12 0 17 1 4 1 12 4 17 5 6 1 11 4
13 5 3 3 52 8 128 13 31 2 61 7 68 11 6 4 11 2 11 -5 0 -8 5 -8 16 2 9 7 29
12 45 11 16 -1 29 3 29 9 0 8 4 8 15 -1 12 -10 15 -10 15 0 0 9 4 9 13 2 8 -7
18 -7 27 -2 9 5 19 5 27 -2 9 -7 13 -7 13 0 0 8 8 8 23 3 12 -5 32 -5 45 0 15
6 22 5 22 -3 0 -7 6 -6 18 3 13 11 52 14 187 12 196 -4 195 -3 195 -15 0 -5 9
-4 20 2 11 6 20 7 20 3 0 -4 16 -8 35 -8 19 0 35 4 35 9 0 5 6 3 13 -3 8 -6
16 -8 20 -5 8 8 97 11 97 3 0 -4 7 -10 16 -13 8 -3 13 -2 10 3 -4 5 13 7 36 4
24 -3 55 -6 71 -7 15 -1 27 -5 27 -10 0 -5 7 -3 15 4 8 7 15 8 15 3 0 -5 26
-10 58 -11 70 -2 123 -8 153 -17 13 -5 19 -3 15 3 -8 14 37 2 46 -12 6 -8 8
-8 8 0 0 6 7 11 15 11 8 0 15 -3 15 -6 0 -4 19 -6 43 -5 23 1 47 -2 53 -7 14
-12 82 -5 96 9 9 9 9 12 0 12 -6 0 -9 7 -6 15 4 8 1 15 -6 15 -6 0 -9 4 -5 9
3 5 -4 16 -15 24 -11 7 -17 17 -13 20 3 4 -1 7 -10 7 -8 0 -17 5 -19 11 -2 5
-10 12 -18 13 -63 14 -80 20 -80 28 0 6 -12 8 -26 5 -16 -3 -28 0 -31 9 -2 7
-12 13 -21 13 -36 1 -52 5 -52 11 0 3 -19 7 -42 9 -23 1 -45 4 -50 7 -5 3 -60
7 -123 9 -63 2 -120 7 -125 10 -6 3 -10 2 -10 -3 0 -6 -14 -7 -34 -2 -19 4
-37 5 -40 2 -4 -3 -6 -1 -6 5 0 10 -40 10 -92 0 -15 -3 -30 -2 -33 3 -3 5 -15
6 -28 1 -14 -5 -30 -5 -40 0 -12 7 -17 6 -17 -3 0 -11 -2 -11 -9 0 -9 14 -32
13 -43 -3 -5 -7 -11 -7 -15 0 -5 6 -17 11 -28 11 -11 0 -23 -5 -27 -11 -5 -6
-8 -5 -8 3 0 14 -31 12 -42 -3 -5 -6 -11 -6 -16 2 -5 9 -11 10 -18 3z"/>
</g>
</svg>
